{
  "accessors": [
    {
      "bufferView": 2,
      "componentType": 5126,
      "count": 24758,
      "max": [
        0.03462100028991699,
        -0.0712990015745163,
        0.012128000147640705
      ],
      "min": [
        -0.04258999973535538,
        -0.08465799689292908,
        -0.00871300045400858
      ],
      "type": "VEC3"
    },
    {
      "bufferView": 2,
      "byteOffset": 297096,
      "componentType": 5126,
      "count": 24758,
      "max": [
        0.9999954104423523,
        0.9999998807907104,
        0.9999848008155823
      ],
      "min": [
        -0.9999878406524658,
        -0.9999991655349731,
        -0.999976634979248
      ],
      "type": "VEC3"
    },
    {
      "bufferView": 3,
      "componentType": 5126,
      "count": 24758,
      "max": [
        0.9999996423721313,
        0.9999152421951294,
        0.9859095215797424,
        1.0
      ],
      "min": [
        -0.9999997615814209,
        -0.9996450543403625,
        -0.9917624592781067,
        -1.0
      ],
      "type": "VEC4"
    },
    {
      "bufferView": 1,
      "componentType": 5126,
      "count": 24758,
      "max": [
        0.9962850213050842,
        0.9956049919128418
      ],
      "min": [
        0.0012209999840706587,
        0.003418999956920743
      ],
      "type": "VEC2"
    },
    {
      "bufferView": 0,
      "componentType": 5125,
      "count": 120000,
      "type": "SCALAR"
    }
  ],
  "asset": {
    "extras": {
      "author": "grafi (https://sketchfab.com/zdenkoroman)",
      "license": "SKETCHFAB Editorial (https://sketchfab.com/licenses)",
      "source": "https://sketchfab.com/3d-models/skateboard-3d-scan-e00b5d83fd41416e8871d5474c3a08ac",
      "title": "Skateboard 3D Scan"
    },
    "generator": "Sketchfab-12.68.0",
    "version": "2.0"
  },
  "bufferViews": [
    {
      "buffer": 0,
      "byteLength": 480000,
      "name": "floatBufferViews",
      "target": 34963
    },
    {
      "buffer": 0,
      "byteLength": 198064,
      "byteOffset": 480000,
      "byteStride": 8,
      "name": "floatBufferViews",
      "target": 34962
    },
    {
      "buffer": 0,
      "byteLength": 594192,
      "byteOffset": 678064,
      "byteStride": 12,
      "name": "floatBufferViews",
      "target": 34962
    },
    {
      "buffer": 0,
      "byteLength": 396128,
      "byteOffset": 1272256,
      "byteStride": 16,
      "name": "floatBufferViews",
      "target": 34962
    }
  ],
  "buffers": [
    {
      "byteLength": 1668384,
      "uri": "scene.bin"
    }
  ],
  "extensionsRequired": [
    "KHR_materials_pbrSpecularGlossiness"
  ],
  "extensionsUsed": [
    "KHR_materials_pbrSpecularGlossiness"
  ],
  "images": [
    {
      "uri": "textures/material_0_diffuse.png"
    },
    {
      "uri": "textures/material_0_specularGlossiness.png"
    },
    {
      "uri": "textures/material_0_normal.png"
    }
  ],
  "materials": [
    {
      "doubleSided": true,
      "extensions": {
        "KHR_materials_pbrSpecularGlossiness": {
          "diffuseFactor": [
            1.0,
            1.0,
            1.0,
            1.0
          ],
          "diffuseTexture": {
            "index": 0
          },
          "glossinessFactor": 0.5078125,
          "specularFactor": [
            1.0,
            1.0,
            1.0
          ],
          "specularGlossinessTexture": {
            "index": 1
          }
        }
      },
      "name": "material_0",
      "normalTexture": {
        "index": 2
      }
    }
  ],
  "meshes": [
    {
      "name": "Object_0",
      "primitives": [
        {
          "attributes": {
            "NORMAL": 1,
            "POSITION": 0,
            "TANGENT": 2,
            "TEXCOORD_0": 3
          },
          "indices": 4,
          "material": 0,
          "mode": 4
        }
      ]
    }
  ],
  "nodes": [
    {
      "children": [
        1
      ],
      "matrix": [
        9.998833537101746,
        0.044775647111237084,
        -0.14604447409510612,
        0.0,
        -0.04719564225524664,
        9.99851405620575,
        -0.16578122973441856,
        0.0,
        0.1452804822474718,
        0.16645114868879096,
        9.997559189796448,
        0.0,
        -0.0003928953956346959,
        0.0796530097723007,
        0.07490731030702592,
        1.0
      ],
      "name": "Sketchfab_model"
    },
    {
      "children": [
        2
      ],
      "name": "skate-low.obj.cleaner.materialmerger.gles"
    },
    {
      "mesh": 0,
      "name": "Object_2"
    }
  ],
  "samplers": [
    {
      "magFilter": 9729,
      "minFilter": 9987,
      "wrapS": 10497,
      "wrapT": 10497
    }
  ],
  "scene": 0,
  "scenes": [
    {
      "name": "Sketchfab_Scene",
      "nodes": [
        0
      ]
    }
  ],
  "textures": [
    {
      "sampler": 0,
      "source": 0
    },
    {
      "sampler": 0,
      "source": 1
    },
    {
      "sampler": 0,
      "source": 2
    }
  ]
}
